# Generated from room.obj: RoomShell
mtllib room.mtl
o RoomShell
v -30.000000 0.000000 -30.000000
v -10.000000 0.000000 -30.000000
v -10.000000 0.000000 30.000000
v -30.000000 0.000000 30.000000
v -10.000000 0.000000 -30.000000
v 10.000000 0.000000 -30.000000
v 10.000000 0.000000 30.000000
v -10.000000 0.000000 30.000000
v 10.000000 0.000000 -30.000000
v 30.000000 0.000000 -30.000000
v 30.000000 0.000000 30.000000
v 10.000000 0.000000 30.000000
v -30.000000 0.000000 -30.000000
v -5.600000 0.000000 -30.000000
v -5.600000 25.000000 -30.000000
v -30.000000 25.000000 -30.000000
v 5.600000 0.000000 -30.000000
v 30.000000 0.000000 -30.000000
v 30.000000 25.000000 -30.000000
v 5.600000 25.000000 -30.000000
v -5.600000 0.000000 -30.000000
v 5.600000 0.000000 -30.000000
v 5.600000 9.500000 -30.000000
v -5.600000 9.500000 -30.000000
v -5.600000 16.500000 -30.000000
v 5.600000 16.500000 -30.000000
v 5.600000 25.000000 -30.000000
v -5.600000 25.000000 -30.000000
v -5.600000 9.500000 -31.000000
v 5.600000 9.500000 -31.000000
v 5.600000 16.500000 -31.000000
v -5.600000 16.500000 -31.000000
v -5.600000 9.500000 -30.000000
v 5.600000 9.500000 -30.000000
v 5.600000 9.500000 -31.000000
v -5.600000 9.500000 -31.000000
v -5.600000 16.500000 -30.000000
v 5.600000 16.500000 -30.000000
v 5.600000 16.500000 -31.000000
v -5.600000 16.500000 -31.000000
v -5.600000 9.500000 -30.000000
v -5.600000 16.500000 -30.000000
v -5.600000 16.500000 -31.000000
v -5.600000 9.500000 -31.000000
v 5.600000 9.500000 -30.000000
v 5.600000 16.500000 -30.000000
v 5.600000 16.500000 -31.000000
v 5.600000 9.500000 -31.000000
v -30.000000 0.000000 -30.000000
v -30.000000 0.000000 30.000000
v -30.000000 25.000000 30.000000
v -30.000000 25.000000 -30.000000
v 30.000000 25.000000 30.000000
vn 0.000000 1.000000 0.000000
vn 0.000000 -0.000000 1.000000
vn 0.000000 -1.000000 0.000000
vn 1.000000 -0.000000 0.000000
vn -1.000000 -0.000000 0.000000
vn 0.000000 -0.000000 -1.000000
usemtl floor_light
s off
f 4//1 3//1 2//1 1//1
usemtl floor_dark
s off
f 8//1 7//1 6//1 5//1
usemtl floor_light
s off
f 12//1 11//1 10//1 9//1
usemtl wall
s off
f 13//2 14//2 15//2 16//2
f 17//2 18//2 19//2 20//2
f 21//2 22//2 23//2 24//2
f 25//2 26//2 27//2 28//2
usemtl window_glass
s off
f 29//2 30//2 31//2 32//2
usemtl window_frame
s off
f 36//3 35//3 34//3 33//3
f 37//1 38//1 39//1 40//1
f 44//4 43//4 42//4 41//4
f 45//5 46//5 47//5 48//5
usemtl wall
s off
f 52//4 51//4 50//4 49//4
f 10//5 11//5 53//5 19//5
f 4//6 11//6 53//6 51//6
