# Generated room model
mtllib room.mtl
o Room
v -30.000000 0.000000 -30.000000
v -10.000000 0.000000 -30.000000
v -10.000000 0.000000 30.000000
v -30.000000 0.000000 30.000000
v -10.000000 0.000000 -30.000000
v 10.000000 0.000000 -30.000000
v 10.000000 0.000000 30.000000
v -10.000000 0.000000 30.000000
v 10.000000 0.000000 -30.000000
v 30.000000 0.000000 -30.000000
v 30.000000 0.000000 30.000000
v 10.000000 0.000000 30.000000
v -30.000000 0.000000 -30.000000
v -8.000000 0.000000 -30.000000
v -8.000000 -25.000000 -30.000000
v -30.000000 -25.000000 -30.000000
v 8.000000 0.000000 -30.000000
v 30.000000 0.000000 -30.000000
v 30.000000 -25.000000 -30.000000
v 8.000000 -25.000000 -30.000000
v -8.000000 0.000000 -30.000000
v 8.000000 0.000000 -30.000000
v 8.000000 -8.000000 -30.000000
v -8.000000 -8.000000 -30.000000
v -8.000000 -18.000000 -30.000000
v 8.000000 -18.000000 -30.000000
v 8.000000 -25.000000 -30.000000
v -8.000000 -25.000000 -30.000000
v -8.000000 -8.000000 -31.000000
v 8.000000 -8.000000 -31.000000
v 8.000000 -18.000000 -31.000000
v -8.000000 -18.000000 -31.000000
v -8.000000 -8.000000 -30.000000
v 8.000000 -8.000000 -30.000000
v 8.000000 -8.000000 -31.000000
v -8.000000 -8.000000 -31.000000
v -8.000000 -18.000000 -30.000000
v 8.000000 -18.000000 -30.000000
v 8.000000 -18.000000 -31.000000
v -8.000000 -18.000000 -31.000000
v -8.000000 -8.000000 -30.000000
v -8.000000 -18.000000 -30.000000
v -8.000000 -18.000000 -31.000000
v -8.000000 -8.000000 -31.000000
v 8.000000 -8.000000 -30.000000
v 8.000000 -18.000000 -30.000000
v 8.000000 -18.000000 -31.000000
v 8.000000 -8.000000 -31.000000
v -30.000000 0.000000 -30.000000
v -30.000000 0.000000 30.000000
v -30.000000 -25.000000 30.000000
v -30.000000 -25.000000 -30.000000
v -1.000000 -10.000000 -4.000000
v 11.000000 -10.000000 -4.000000
v 11.000000 -9.200000 -4.000000
v -1.000000 -9.200000 -4.000000
v -1.000000 -10.000000 4.000000
v 11.000000 -10.000000 4.000000
v 11.000000 -9.200000 4.000000
v -1.000000 -9.200000 4.000000
v -0.600000 -9.200000 -3.600000
v 0.200000 -9.200000 -3.600000
v 0.200000 0.000000 -3.600000
v -0.600000 0.000000 -3.600000
v -0.600000 -9.200000 -2.800000
v 0.200000 -9.200000 -2.800000
v 0.200000 0.000000 -2.800000
v -0.600000 0.000000 -2.800000
v -0.600000 -9.200000 2.800000
v 0.200000 -9.200000 2.800000
v 0.200000 0.000000 2.800000
v -0.600000 0.000000 2.800000
v -0.600000 -9.200000 3.600000
v 0.200000 -9.200000 3.600000
v 0.200000 0.000000 3.600000
v -0.600000 0.000000 3.600000
v 9.800000 -9.200000 -3.600000
v 10.600000 -9.200000 -3.600000
v 10.600000 0.000000 -3.600000
v 9.800000 0.000000 -3.600000
v 9.800000 -9.200000 -2.800000
v 10.600000 -9.200000 -2.800000
v 10.600000 0.000000 -2.800000
v 9.800000 0.000000 -2.800000
v 9.800000 -9.200000 2.800000
v 10.600000 -9.200000 2.800000
v 10.600000 0.000000 2.800000
v 9.800000 0.000000 2.800000
v 9.800000 -9.200000 3.600000
v 10.600000 -9.200000 3.600000
v 10.600000 0.000000 3.600000
v 9.800000 0.000000 3.600000
v 2.000000 -7.000000 5.000000
v 8.000000 -7.000000 5.000000
v 8.000000 -6.400000 5.000000
v 2.000000 -6.400000 5.000000
v 2.000000 -7.000000 11.000000
v 8.000000 -7.000000 11.000000
v 8.000000 -6.400000 11.000000
v 2.000000 -6.400000 11.000000
v 2.300000 -6.400000 5.300000
v 2.900000 -6.400000 5.300000
v 2.900000 0.000000 5.300000
v 2.300000 0.000000 5.300000
v 2.300000 -6.400000 5.900000
v 2.900000 -6.400000 5.900000
v 2.900000 0.000000 5.900000
v 2.300000 0.000000 5.900000
v 2.300000 -6.400000 10.100000
v 2.900000 -6.400000 10.100000
v 2.900000 0.000000 10.100000
v 2.300000 0.000000 10.100000
v 2.300000 -6.400000 10.700000
v 2.900000 -6.400000 10.700000
v 2.900000 0.000000 10.700000
v 2.300000 0.000000 10.700000
v 7.100000 -6.400000 5.300000
v 7.700000 -6.400000 5.300000
v 7.700000 0.000000 5.300000
v 7.100000 0.000000 5.300000
v 7.100000 -6.400000 5.900000
v 7.700000 -6.400000 5.900000
v 7.700000 0.000000 5.900000
v 7.100000 0.000000 5.900000
v 7.100000 -6.400000 10.100000
v 7.700000 -6.400000 10.100000
v 7.700000 0.000000 10.100000
v 7.100000 0.000000 10.100000
v 7.100000 -6.400000 10.700000
v 7.700000 -6.400000 10.700000
v 7.700000 0.000000 10.700000
v 7.100000 0.000000 10.700000
v 2.000000 -14.000000 10.400000
v 8.000000 -14.000000 10.400000
v 8.000000 -7.000000 10.400000
v 2.000000 -7.000000 10.400000
v 2.000000 -14.000000 11.000000
v 8.000000 -14.000000 11.000000
v 8.000000 -7.000000 11.000000
v 2.000000 -7.000000 11.000000
vn 0.000000 -1.000000 0.000000
vn 0.000000 0.000000 1.000000
vn 0.000000 1.000000 0.000000
vn 1.000000 0.000000 0.000000
vn -1.000000 0.000000 0.000000
vn 0.000000 0.000000 -1.000000
usemtl floor_light
s off
f 1//1 2//1 3//1 4//1
usemtl floor_dark
s off
f 5//1 6//1 7//1 8//1
usemtl floor_light
s off
f 9//1 10//1 11//1 12//1
usemtl wall
s off
f 16//2 15//2 14//2 13//2
f 20//2 19//2 18//2 17//2
usemtl wall_shadow
s off
f 24//2 23//2 22//2 21//2
usemtl wall
s off
f 28//2 27//2 26//2 25//2
usemtl window_glass
s off
f 32//2 31//2 30//2 29//2
usemtl window_frame
s off
f 33//3 34//3 35//3 36//3
f 40//1 39//1 38//1 37//1
f 41//4 42//4 43//4 44//4
f 48//5 47//5 46//5 45//5
usemtl wall
s off
f 49//4 50//4 51//4 52//4
usemtl table_wood
s off
f 56//6 55//6 54//6 53//6
f 57//2 58//2 59//2 60//2
f 53//1 54//1 58//1 57//1
f 55//3 56//3 60//3 59//3
f 56//5 53//5 57//5 60//5
f 54//4 55//4 59//4 58//4
f 64//6 63//6 62//6 61//6
f 65//2 66//2 67//2 68//2
f 61//1 62//1 66//1 65//1
f 63//3 64//3 68//3 67//3
f 64//5 61//5 65//5 68//5
f 62//4 63//4 67//4 66//4
f 72//6 71//6 70//6 69//6
f 73//2 74//2 75//2 76//2
f 69//1 70//1 74//1 73//1
f 71//3 72//3 76//3 75//3
f 72//5 69//5 73//5 76//5
f 70//4 71//4 75//4 74//4
f 80//6 79//6 78//6 77//6
f 81//2 82//2 83//2 84//2
f 77//1 78//1 82//1 81//1
f 79//3 80//3 84//3 83//3
f 80//5 77//5 81//5 84//5
f 78//4 79//4 83//4 82//4
f 88//6 87//6 86//6 85//6
f 89//2 90//2 91//2 92//2
f 85//1 86//1 90//1 89//1
f 87//3 88//3 92//3 91//3
f 88//5 85//5 89//5 92//5
f 86//4 87//4 91//4 90//4
usemtl chair_fabric
s off
f 96//6 95//6 94//6 93//6
f 97//2 98//2 99//2 100//2
f 93//1 94//1 98//1 97//1
f 95//3 96//3 100//3 99//3
f 96//5 93//5 97//5 100//5
f 94//4 95//4 99//4 98//4
usemtl chair_frame
s off
f 104//6 103//6 102//6 101//6
f 105//2 106//2 107//2 108//2
f 101//1 102//1 106//1 105//1
f 103//3 104//3 108//3 107//3
f 104//5 101//5 105//5 108//5
f 102//4 103//4 107//4 106//4
f 112//6 111//6 110//6 109//6
f 113//2 114//2 115//2 116//2
f 109//1 110//1 114//1 113//1
f 111//3 112//3 116//3 115//3
f 112//5 109//5 113//5 116//5
f 110//4 111//4 115//4 114//4
f 120//6 119//6 118//6 117//6
f 121//2 122//2 123//2 124//2
f 117//1 118//1 122//1 121//1
f 119//3 120//3 124//3 123//3
f 120//5 117//5 121//5 124//5
f 118//4 119//4 123//4 122//4
f 128//6 127//6 126//6 125//6
f 129//2 130//2 131//2 132//2
f 125//1 126//1 130//1 129//1
f 127//3 128//3 132//3 131//3
f 128//5 125//5 129//5 132//5
f 126//4 127//4 131//4 130//4
usemtl chair_fabric
s off
f 136//6 135//6 134//6 133//6
f 137//2 138//2 139//2 140//2
f 133//1 134//1 138//1 137//1
f 135//3 136//3 140//3 139//3
f 136//5 133//5 137//5 140//5
f 134//4 135//4 139//4 138//4
