# Generated model: RoomShell
mtllib room.mtl
o RoomShell
v -30.000000 0.000000 -30.000000
v -10.000000 0.000000 -30.000000
v -10.000000 0.000000 30.000000
v -30.000000 0.000000 30.000000
v -10.000000 0.000000 -30.000000
v 10.000000 0.000000 -30.000000
v 10.000000 0.000000 30.000000
v -10.000000 0.000000 30.000000
v 10.000000 0.000000 -30.000000
v 30.000000 0.000000 -30.000000
v 30.000000 0.000000 30.000000
v 10.000000 0.000000 30.000000
v -30.000000 0.000000 -30.000000
v -8.000000 0.000000 -30.000000
v -8.000000 -25.000000 -30.000000
v -30.000000 -25.000000 -30.000000
v 8.000000 0.000000 -30.000000
v 30.000000 0.000000 -30.000000
v 30.000000 -25.000000 -30.000000
v 8.000000 -25.000000 -30.000000
v -8.000000 0.000000 -30.000000
v 8.000000 0.000000 -30.000000
v 8.000000 -8.000000 -30.000000
v -8.000000 -8.000000 -30.000000
v -8.000000 -18.000000 -30.000000
v 8.000000 -18.000000 -30.000000
v 8.000000 -25.000000 -30.000000
v -8.000000 -25.000000 -30.000000
v -8.000000 -8.000000 -31.000000
v 8.000000 -8.000000 -31.000000
v 8.000000 -18.000000 -31.000000
v -8.000000 -18.000000 -31.000000
v -8.000000 -8.000000 -30.000000
v 8.000000 -8.000000 -30.000000
v 8.000000 -8.000000 -31.000000
v -8.000000 -8.000000 -31.000000
v -8.000000 -18.000000 -30.000000
v 8.000000 -18.000000 -30.000000
v 8.000000 -18.000000 -31.000000
v -8.000000 -18.000000 -31.000000
v -8.000000 -8.000000 -30.000000
v -8.000000 -18.000000 -30.000000
v -8.000000 -18.000000 -31.000000
v -8.000000 -8.000000 -31.000000
v 8.000000 -8.000000 -30.000000
v 8.000000 -18.000000 -30.000000
v 8.000000 -18.000000 -31.000000
v 8.000000 -8.000000 -31.000000
v -30.000000 0.000000 -30.000000
v -30.000000 0.000000 30.000000
v -30.000000 -25.000000 30.000000
v -30.000000 -25.000000 -30.000000
v 30.000000 0.000000 -30.000000
v 30.000000 0.000000 30.000000
v 30.000000 -25.000000 30.000000
v 30.000000 -25.000000 -30.000000
v -30.000000 0.000000 30.000000
v 30.000000 0.000000 30.000000
v 30.000000 -25.000000 30.000000
v -30.000000 -25.000000 30.000000
vn 0.000000 -1.000000 0.000000
vn 0.000000 0.000000 1.000000
vn 0.000000 1.000000 0.000000
vn 1.000000 0.000000 0.000000
vn -1.000000 0.000000 0.000000
vn 0.000000 0.000000 -1.000000
usemtl floor_light
s off
f 1//1 2//1 3//1 4//1
usemtl floor_dark
s off
f 5//1 6//1 7//1 8//1
usemtl floor_light
s off
f 9//1 10//1 11//1 12//1
usemtl wall
s off
f 16//2 15//2 14//2 13//2
f 20//2 19//2 18//2 17//2
usemtl wall_shadow
s off
f 24//2 23//2 22//2 21//2
usemtl wall
s off
f 28//2 27//2 26//2 25//2
usemtl window_glass
s off
f 32//2 31//2 30//2 29//2
usemtl window_frame
s off
f 33//3 34//3 35//3 36//3
f 40//1 39//1 38//1 37//1
f 41//4 42//4 43//4 44//4
f 48//5 47//5 46//5 45//5
usemtl wall
s off
f 49//4 50//4 51//4 52//4
f 56//5 55//5 54//5 53//5
f 57//6 58//6 59//6 60//6
