# Low-poly table source mesh for room decor
# Coordinates in OBJ space (Y-up, Z-forward), centered near origin

v -4.200000 2.520000 -2.800000
v 4.200000 2.520000 -2.800000
v 4.200000 2.520000 2.800000
v -4.200000 2.520000 2.800000
v -4.200000 3.080000 2.800000
v 4.200000 3.080000 2.800000
v 4.200000 3.080000 -2.800000
v -4.200000 3.080000 -2.800000

v -3.920000 -3.920000 -2.520000
v -3.360000 -3.920000 -2.520000
v -3.360000 -3.920000 2.520000
v -3.920000 -3.920000 2.520000
v -3.920000 2.520000 2.520000
v -3.360000 2.520000 2.520000
v -3.360000 2.520000 -2.520000
v -3.920000 2.520000 -2.520000

v 3.360000 -3.920000 -2.520000
v 3.920000 -3.920000 -2.520000
v 3.920000 -3.920000 2.520000
v 3.360000 -3.920000 2.520000
v 3.360000 2.520000 2.520000
v 3.920000 2.520000 2.520000
v 3.920000 2.520000 -2.520000
v 3.360000 2.520000 -2.520000

vn 0.000000 1.000000 0.000000
vn 0.000000 0.000000 1.000000
vn 0.000000 -1.000000 0.000000
vn 1.000000 0.000000 0.000000
vn -1.000000 0.000000 0.000000
vn 0.000000 0.000000 -1.000000

usemtl table_wood
s off
f 1//3 2//3 3//3 4//3
f 5//1 6//1 7//1 8//1
f 8//6 7//6 2//6 1//6
f 6//2 5//2 4//2 3//2
f 5//5 8//5 1//5 4//5
f 7//4 6//4 3//4 2//4

usemtl wall_shadow
s off
f 9//3 10//3 11//3 12//3
f 16//6 15//6 10//6 9//6
f 14//2 13//2 12//2 11//2
f 13//5 16//5 9//5 12//5
f 15//4 14//4 11//4 10//4

f 17//3 18//3 19//3 20//3
f 24//6 23//6 18//6 17//6
f 22//2 21//2 20//2 19//2
f 21//5 24//5 17//5 20//5
f 23//4 22//4 19//4 18//4
