# Generated from room.obj: Table
mtllib room.mtl
o Table
v -4.200000 3.080000 -2.800000
v 4.200000 3.080000 -2.800000
v 4.200000 2.520000 -2.800000
v -4.200000 2.520000 -2.800000
v -4.200000 3.080000 2.800000
v 4.200000 3.080000 2.800000
v 4.200000 2.520000 2.800000
v -4.200000 2.520000 2.800000
v -3.920000 2.520000 -2.520000
v -3.360000 2.520000 -2.520000
v -3.360000 -3.920000 -2.520000
v -3.920000 -3.920000 -2.520000
v -3.920000 2.520000 -1.960000
v -3.360000 2.520000 -1.960000
v -3.360000 -3.920000 -1.960000
v -3.920000 -3.920000 -1.960000
v -3.920000 2.520000 1.960000
v -3.360000 2.520000 1.960000
v -3.360000 -3.920000 1.960000
v -3.920000 -3.920000 1.960000
v -3.920000 2.520000 2.520000
v -3.360000 2.520000 2.520000
v -3.360000 -3.920000 2.520000
v -3.920000 -3.920000 2.520000
v 3.360000 2.520000 -2.520000
v 3.920000 2.520000 -2.520000
v 3.920000 -3.920000 -2.520000
v 3.360000 -3.920000 -2.520000
v 3.360000 2.520000 -1.960000
v 3.920000 2.520000 -1.960000
v 3.920000 -3.920000 -1.960000
v 3.360000 -3.920000 -1.960000
v 3.360000 2.520000 1.960000
v 3.920000 2.520000 1.960000
v 3.920000 -3.920000 1.960000
v 3.360000 -3.920000 1.960000
v 3.360000 2.520000 2.520000
v 3.920000 2.520000 2.520000
v 3.920000 -3.920000 2.520000
v 3.360000 -3.920000 2.520000
vn 0.000000 1.000000 0.000000
vn 0.000000 -0.000000 1.000000
vn 0.000000 -1.000000 0.000000
vn 1.000000 -0.000000 0.000000
vn -1.000000 -0.000000 0.000000
vn 0.000000 -0.000000 -1.000000
usemtl table_wood
s off
f 1//6 2//6 3//6 4//6
f 8//2 7//2 6//2 5//2
f 5//1 6//1 2//1 1//1
f 7//3 8//3 4//3 3//3
f 8//5 5//5 1//5 4//5
f 6//4 7//4 3//4 2//4
f 9//6 10//6 11//6 12//6
f 16//2 15//2 14//2 13//2
f 13//1 14//1 10//1 9//1
f 15//3 16//3 12//3 11//3
f 16//5 13//5 9//5 12//5
f 14//4 15//4 11//4 10//4
f 17//6 18//6 19//6 20//6
f 24//2 23//2 22//2 21//2
f 21//1 22//1 18//1 17//1
f 23//3 24//3 20//3 19//3
f 24//5 21//5 17//5 20//5
f 22//4 23//4 19//4 18//4
f 25//6 26//6 27//6 28//6
f 32//2 31//2 30//2 29//2
f 29//1 30//1 26//1 25//1
f 31//3 32//3 28//3 27//3
f 32//5 29//5 25//5 28//5
f 30//4 31//4 27//4 26//4
f 33//6 34//6 35//6 36//6
f 40//2 39//2 38//2 37//2
f 37//1 38//1 34//1 33//1
f 39//3 40//3 36//3 35//3
f 40//5 37//5 33//5 36//5
f 38//4 39//4 35//4 34//4
