# Generated from room.obj: Table
mtllib room.mtl
o Table
v -4.200000 -3.080000 -2.800000
v 4.200000 -3.080000 -2.800000
v 4.200000 -2.520000 -2.800000
v -4.200000 -2.520000 -2.800000
v -4.200000 -3.080000 2.800000
v 4.200000 -3.080000 2.800000
v 4.200000 -2.520000 2.800000
v -4.200000 -2.520000 2.800000
v -3.920000 -2.520000 -2.520000
v -3.360000 -2.520000 -2.520000
v -3.360000 3.920000 -2.520000
v -3.920000 3.920000 -2.520000
v -3.920000 -2.520000 -1.960000
v -3.360000 -2.520000 -1.960000
v -3.360000 3.920000 -1.960000
v -3.920000 3.920000 -1.960000
v -3.920000 -2.520000 1.960000
v -3.360000 -2.520000 1.960000
v -3.360000 3.920000 1.960000
v -3.920000 3.920000 1.960000
v -3.920000 -2.520000 2.520000
v -3.360000 -2.520000 2.520000
v -3.360000 3.920000 2.520000
v -3.920000 3.920000 2.520000
v 3.360000 -2.520000 -2.520000
v 3.920000 -2.520000 -2.520000
v 3.920000 3.920000 -2.520000
v 3.360000 3.920000 -2.520000
v 3.360000 -2.520000 -1.960000
v 3.920000 -2.520000 -1.960000
v 3.920000 3.920000 -1.960000
v 3.360000 3.920000 -1.960000
v 3.360000 -2.520000 1.960000
v 3.920000 -2.520000 1.960000
v 3.920000 3.920000 1.960000
v 3.360000 3.920000 1.960000
v 3.360000 -2.520000 2.520000
v 3.920000 -2.520000 2.520000
v 3.920000 3.920000 2.520000
v 3.360000 3.920000 2.520000
vn 0.000000 -1.000000 0.000000
vn 0.000000 0.000000 1.000000
vn 0.000000 1.000000 0.000000
vn 1.000000 0.000000 0.000000
vn -1.000000 0.000000 0.000000
vn 0.000000 0.000000 -1.000000
usemtl table_wood
s off
f 4//6 3//6 2//6 1//6
f 5//2 6//2 7//2 8//2
f 1//1 2//1 6//1 5//1
f 3//3 4//3 8//3 7//3
f 4//5 1//5 5//5 8//5
f 2//4 3//4 7//4 6//4
f 12//6 11//6 10//6 9//6
f 13//2 14//2 15//2 16//2
f 9//1 10//1 14//1 13//1
f 11//3 12//3 16//3 15//3
f 12//5 9//5 13//5 16//5
f 10//4 11//4 15//4 14//4
f 20//6 19//6 18//6 17//6
f 21//2 22//2 23//2 24//2
f 17//1 18//1 22//1 21//1
f 19//3 20//3 24//3 23//3
f 20//5 17//5 21//5 24//5
f 18//4 19//4 23//4 22//4
f 28//6 27//6 26//6 25//6
f 29//2 30//2 31//2 32//2
f 25//1 26//1 30//1 29//1
f 27//3 28//3 32//3 31//3
f 28//5 25//5 29//5 32//5
f 26//4 27//4 31//4 30//4
f 36//6 35//6 34//6 33//6
f 37//2 38//2 39//2 40//2
f 33//1 34//1 38//1 37//1
f 35//3 36//3 40//3 39//3
f 36//5 33//5 37//5 40//5
f 34//4 35//4 39//4 38//4
